<svg id="svg" version="1.1" width="400" height="265.06849315068496" viewBox="0 0 400 265.06849315068496" xmlns="http://www.w3.org/2000/svg" xmlns:xlink="http://www.w3.org/1999/xlink" ><g id="svgg"><path id="path0" d="M0.000 132.538 L 0.000 265.076 200.000 265.076 L 400.000 265.076 400.000 132.538 L 400.000 0.000 200.000 0.000 L 0.000 0.000 0.000 132.538 M264.072 79.100 C 267.503 79.818,270.525 82.257,271.755 85.301 L 272.366 86.812 272.366 133.201 C 272.366 177.973,272.348 179.635,271.867 180.915 C 270.799 183.752,268.546 186.029,265.645 187.201 L 264.148 187.806 200.928 187.880 C 130.647 187.961,135.015 188.066,132.144 186.230 C 130.252 185.019,129.223 183.869,128.221 181.842 L 127.369 180.119 127.369 133.068 L 127.369 86.017 127.986 84.490 C 129.166 81.567,131.467 79.789,134.924 79.129 C 137.639 78.610,261.597 78.582,264.072 79.100 M141.286 133.334 L 141.286 173.891 199.743 173.824 L 258.201 173.757 258.188 133.500 C 258.182 111.359,258.111 93.138,258.032 93.010 C 257.950 92.877,232.831 92.777,199.587 92.777 L 141.286 92.777 141.286 133.334 M170.157 101.807 C 171.117 101.962,172.140 102.182,172.432 102.296 C 182.879 106.371,185.360 119.069,177.000 125.677 C 165.263 134.954,149.534 122.224,156.281 108.910 C 157.442 106.618,161.969 102.584,163.379 102.584 C 163.571 102.584,163.817 102.495,163.925 102.386 C 164.090 102.218,166.766 101.681,168.037 101.560 C 168.243 101.540,169.198 101.651,170.157 101.807 M228.892 108.619 C 229.621 109.747,230.256 110.818,230.303 111.001 C 230.351 111.183,230.501 111.332,230.636 111.332 C 230.771 111.332,230.881 111.432,230.881 111.555 C 230.881 111.736,232.874 114.918,234.062 116.634 C 235.189 118.261,237.243 121.526,237.243 121.690 C 237.243 121.800,237.333 121.931,237.442 121.979 C 237.622 122.059,239.573 124.872,239.894 125.514 C 239.967 125.659,241.170 127.508,242.567 129.622 C 243.964 131.736,245.683 134.361,246.387 135.454 C 247.092 136.547,248.245 138.323,248.950 139.401 C 249.655 140.478,250.232 141.387,250.232 141.420 C 250.232 141.454,251.037 142.660,252.021 144.101 L 253.810 146.720 253.885 157.850 C 253.954 168.130,253.925 169.006,253.503 169.315 C 252.786 169.839,146.514 169.802,146.078 169.277 C 145.833 168.982,146.047 168.505,147.119 166.958 C 148.385 165.130,156.587 152.853,157.455 151.488 C 160.045 147.414,163.541 142.611,163.916 142.611 C 164.093 142.611,164.770 143.104,165.419 143.706 C 166.069 144.308,167.961 146.067,169.623 147.616 C 173.205 150.952,173.114 150.936,175.095 148.575 C 175.952 147.555,177.492 145.768,178.519 144.606 C 180.941 141.861,180.830 141.988,181.445 141.249 C 183.355 138.950,184.898 137.139,185.140 136.912 C 185.294 136.766,186.136 135.812,187.010 134.791 C 187.884 133.771,188.726 132.801,188.880 132.637 C 189.035 132.472,189.692 131.706,190.340 130.933 C 191.620 129.406,193.217 127.545,193.638 127.087 C 193.784 126.929,194.500 126.104,195.229 125.255 C 195.958 124.405,196.675 123.579,196.822 123.419 C 196.969 123.259,197.670 122.442,198.378 121.604 C 200.201 119.448,200.131 119.418,204.936 124.387 L 209.102 128.694 210.103 127.369 C 210.653 126.640,211.173 125.984,211.258 125.911 C 211.343 125.838,211.826 125.242,212.333 124.587 C 213.740 122.766,214.016 122.421,214.447 121.953 C 214.665 121.715,215.376 120.808,216.026 119.938 C 216.676 119.068,217.307 118.237,217.429 118.091 C 217.550 117.946,218.390 116.859,219.295 115.677 C 227.550 104.895,226.830 105.425,228.892 108.619 " stroke="none" fill="#c8c8c8" fill-rule="evenodd"></path><path id="path1" d="M134.924 79.129 C 131.467 79.789,129.166 81.567,127.986 84.490 L 127.369 86.017 127.369 133.068 L 127.369 180.119 128.221 181.842 C 129.223 183.869,130.252 185.019,132.144 186.230 C 135.015 188.066,130.647 187.961,200.928 187.880 L 264.148 187.806 265.645 187.201 C 268.546 186.029,270.799 183.752,271.867 180.915 C 272.348 179.635,272.366 177.973,272.366 133.201 L 272.366 86.812 271.755 85.301 C 270.525 82.257,267.503 79.818,264.072 79.100 C 261.597 78.582,137.639 78.610,134.924 79.129 M266.381 80.015 C 268.132 80.948,270.187 83.029,271.061 84.753 L 271.836 86.282 271.836 133.201 L 271.836 180.119 271.119 181.649 C 270.232 183.542,268.278 185.482,266.231 186.502 L 264.679 187.276 199.867 187.276 L 135.056 187.276 133.541 186.566 C 131.535 185.626,129.536 183.716,128.632 181.876 L 127.899 180.384 127.899 133.201 C 127.899 88.410,127.924 85.948,128.377 84.647 C 129.253 82.137,131.714 80.028,134.384 79.501 C 134.899 79.399,164.546 79.332,200.265 79.353 L 265.209 79.390 266.381 80.015 M199.457 92.710 C 231.524 92.748,257.855 92.871,257.969 92.985 C 258.083 93.099,258.182 111.350,258.188 133.541 C 258.196 159.385,258.293 173.890,258.458 173.890 C 258.955 173.890,258.793 92.864,258.295 92.672 C 258.064 92.584,231.613 92.541,199.514 92.577 L 141.153 92.643 199.457 92.710 M141.150 133.466 C 141.150 155.772,141.181 164.858,141.219 153.657 C 141.258 142.456,141.258 124.206,141.219 113.100 C 141.181 101.995,141.150 111.160,141.150 133.466 M166.733 101.782 C 166.107 101.909,166.623 101.972,168.323 101.976 C 170.288 101.981,170.608 101.936,169.781 101.769 C 168.552 101.521,168.011 101.523,166.733 101.782 M163.950 102.319 C 163.860 102.465,163.616 102.584,163.408 102.584 C 161.971 102.584,157.455 106.592,156.281 108.910 C 150.266 120.780,162.628 133.345,174.435 127.361 C 184.356 122.334,184.416 108.079,174.537 103.277 C 173.671 102.856,172.755 102.408,172.502 102.283 C 172.249 102.157,171.831 102.058,171.574 102.062 C 171.317 102.065,171.892 102.404,172.851 102.813 C 185.727 108.308,183.769 126.406,170.095 128.278 C 154.740 130.380,149.098 108.911,163.415 102.858 C 164.452 102.419,165.018 102.068,164.694 102.063 C 164.375 102.058,164.040 102.174,163.950 102.319 M226.154 107.030 C 225.480 107.693,223.687 109.952,219.290 115.677 C 218.382 116.859,217.368 118.173,217.037 118.597 C 216.012 119.909,214.893 121.574,215.506 120.875 C 216.224 120.055,216.883 119.230,220.168 115.043 C 227.539 105.645,226.885 106.216,228.141 108.092 C 229.926 110.758,234.732 118.105,234.858 118.360 C 234.930 118.508,235.779 119.820,236.742 121.276 C 237.706 122.732,241.881 129.112,246.020 135.454 L 253.545 146.985 253.620 157.815 C 253.675 165.712,253.612 168.746,253.389 169.015 C 253.031 169.446,147.296 169.572,146.617 169.142 C 146.320 168.955,159.923 147.869,162.867 143.952 C 163.074 143.676,163.073 143.618,162.864 143.743 C 162.623 143.888,158.824 149.326,157.455 151.486 C 156.624 152.798,148.407 165.098,147.119 166.958 C 146.047 168.505,145.833 168.982,146.078 169.277 C 146.514 169.802,252.786 169.839,253.503 169.315 C 253.925 169.006,253.954 168.130,253.885 157.850 L 253.810 146.720 252.021 144.101 C 251.037 142.660,250.232 141.454,250.232 141.420 C 250.232 141.387,249.655 140.478,248.950 139.401 C 248.245 138.323,247.092 136.547,246.387 135.454 C 245.683 134.361,243.964 131.736,242.567 129.622 C 241.170 127.508,239.967 125.659,239.894 125.514 C 239.573 124.872,237.622 122.059,237.442 121.979 C 237.333 121.931,237.243 121.800,237.243 121.690 C 237.243 121.526,235.189 118.261,234.062 116.634 C 232.874 114.918,230.881 111.736,230.881 111.555 C 230.881 111.432,230.771 111.332,230.636 111.332 C 230.501 111.332,230.351 111.183,230.303 111.001 C 230.142 110.386,227.571 106.569,227.229 106.437 C 227.042 106.365,226.558 106.632,226.154 107.030 M198.378 121.604 C 197.670 122.442,196.969 123.259,196.822 123.419 C 196.675 123.579,195.958 124.405,195.229 125.255 C 194.500 126.104,193.784 126.929,193.638 127.087 C 193.217 127.545,191.620 129.406,190.340 130.933 C 189.692 131.706,189.035 132.472,188.880 132.637 C 188.726 132.801,187.884 133.771,187.010 134.791 C 186.136 135.812,185.294 136.766,185.140 136.912 C 184.898 137.139,183.355 138.950,181.445 141.249 C 180.830 141.988,180.941 141.861,178.519 144.606 C 177.492 145.768,175.952 147.555,175.095 148.575 C 174.239 149.596,173.337 150.431,173.092 150.431 C 172.725 150.431,170.041 148.080,165.676 143.936 C 165.292 143.572,164.747 143.106,164.464 142.901 C 163.932 142.517,165.532 144.109,169.954 148.365 C 173.080 151.374,173.131 151.380,175.235 148.907 C 177.728 145.976,182.204 140.776,188.170 133.878 C 191.140 130.444,194.540 126.505,195.725 125.125 C 196.910 123.745,198.403 122.045,199.042 121.348 C 199.682 120.650,200.084 120.080,199.936 120.080 C 199.788 120.080,199.087 120.765,198.378 121.604 M203.060 122.929 C 209.854 129.937,208.890 129.424,210.776 127.038 C 214.136 122.787,214.956 121.670,214.718 121.670 C 214.579 121.670,214.343 121.899,214.193 122.179 C 214.043 122.460,213.768 122.847,213.583 123.041 C 213.398 123.235,212.833 123.930,212.329 124.586 C 211.825 125.242,211.343 125.838,211.258 125.911 C 211.173 125.984,210.653 126.640,210.103 127.369 L 209.102 128.694 204.936 124.387 C 202.645 122.018,200.664 120.080,200.534 120.080 C 200.404 120.080,201.540 121.362,203.060 122.929 " stroke="none" fill="#dedede" fill-rule="evenodd"></path><path id="path2" d="M167.329 79.457 C 185.080 79.494,214.125 79.494,231.875 79.457 C 249.626 79.419,235.103 79.388,199.602 79.388 C 164.102 79.388,149.579 79.419,167.329 79.457 M268.169 81.475 C 269.635 82.793,270.992 84.777,271.403 86.202 C 271.575 86.799,271.663 86.900,271.679 86.521 C 271.735 85.212,269.527 82.114,267.594 80.789 C 267.157 80.489,267.416 80.798,268.169 81.475 M129.930 82.056 C 128.932 83.189,128.009 85.192,128.050 86.131 C 128.060 86.360,128.248 85.963,128.467 85.249 C 128.934 83.731,129.418 82.895,130.517 81.710 C 130.957 81.236,131.244 80.848,131.155 80.848 C 131.066 80.848,130.514 81.392,129.930 82.056 M127.896 133.068 C 127.896 158.655,127.927 169.122,127.966 156.329 C 128.004 143.535,128.004 122.601,127.966 109.808 C 127.927 97.015,127.896 107.482,127.896 133.068 M271.833 133.333 C 271.833 158.774,271.864 169.182,271.902 156.461 C 271.940 143.741,271.940 122.926,271.902 110.205 C 271.864 97.485,271.833 107.893,271.833 133.333 M258.382 92.705 C 258.643 92.890,258.727 101.468,258.781 133.481 L 258.849 174.023 258.848 133.355 C 258.847 97.433,258.801 92.676,258.449 92.580 C 258.156 92.500,258.138 92.533,258.382 92.705 M160.234 104.732 C 159.507 105.329,158.868 105.943,158.812 106.095 C 158.757 106.247,159.114 106.008,159.607 105.563 C 160.100 105.117,160.802 104.508,161.166 104.208 C 161.531 103.908,161.767 103.658,161.692 103.654 C 161.616 103.649,160.960 104.134,160.234 104.732 M175.613 104.353 C 176.849 105.584,178.681 107.085,177.866 106.198 C 177.356 105.643,176.581 104.942,176.143 104.639 C 175.706 104.337,175.467 104.208,175.613 104.353 M157.635 107.422 C 157.024 108.240,156.161 109.758,156.467 109.476 C 156.728 109.236,158.482 106.561,158.379 106.561 C 158.323 106.561,157.988 106.948,157.635 107.422 M226.215 107.422 C 225.192 108.603,224.937 109.093,225.845 108.135 C 226.355 107.597,226.952 107.091,227.170 107.012 C 227.511 106.888,227.508 106.865,227.150 106.847 C 226.921 106.835,226.500 107.094,226.215 107.422 M179.659 109.021 C 180.204 109.970,180.691 110.707,180.742 110.659 C 180.882 110.528,179.418 107.919,179.018 107.587 C 178.826 107.427,179.114 108.073,179.659 109.021 M228.385 108.911 C 228.657 109.372,229.153 110.076,229.488 110.475 C 229.885 110.948,229.802 110.713,229.247 109.793 C 228.780 109.020,228.284 108.317,228.144 108.230 C 228.004 108.143,228.112 108.450,228.385 108.911 M224.095 110.073 C 222.844 111.515,222.597 111.862,222.822 111.852 C 222.954 111.846,223.453 111.309,223.932 110.659 C 224.861 109.396,224.945 109.092,224.095 110.073 M155.618 111.467 C 154.746 114.290,154.992 118.741,156.116 120.507 C 156.421 120.985,156.427 120.984,156.253 120.477 C 155.183 117.366,155.041 114.179,155.854 111.566 C 156.140 110.648,156.327 109.850,156.270 109.794 C 156.213 109.737,155.920 110.490,155.618 111.467 M180.786 111.487 C 180.788 111.766,180.911 112.174,181.059 112.392 C 181.256 112.683,181.280 112.575,181.150 111.995 C 180.932 111.020,180.781 110.808,180.786 111.487 M221.072 113.917 C 220.290 114.901,219.241 116.213,218.740 116.832 C 218.239 117.452,217.898 117.959,217.981 117.959 C 218.102 117.959,220.155 115.444,222.472 112.459 C 222.613 112.276,222.676 112.127,222.612 112.127 C 222.547 112.127,221.854 112.932,221.072 113.917 M231.058 112.927 C 231.318 113.366,231.808 114.052,232.147 114.451 C 232.486 114.849,232.323 114.490,231.785 113.651 C 230.765 112.063,230.237 111.536,231.058 112.927 M180.933 118.641 C 180.836 119.029,180.807 119.398,180.870 119.460 C 180.932 119.523,181.063 119.256,181.161 118.868 C 181.258 118.479,181.287 118.110,181.224 118.048 C 181.162 117.985,181.031 118.252,180.933 118.641 M179.810 121.359 C 178.277 124.116,175.553 126.413,172.522 127.504 C 171.743 127.784,171.333 128.017,171.609 128.022 C 174.045 128.069,181.908 121.117,180.740 119.949 C 180.688 119.897,180.269 120.532,179.810 121.359 M215.110 121.471 C 214.408 122.382,214.071 122.919,214.361 122.663 C 214.910 122.179,216.680 119.814,216.494 119.814 C 216.435 119.814,215.813 120.560,215.110 121.471 M199.189 121.206 C 198.610 121.826,197.840 122.696,197.478 123.139 C 197.115 123.582,197.543 123.174,198.429 122.231 C 199.659 120.921,200.152 120.560,200.520 120.702 C 200.929 120.858,200.951 120.825,200.668 120.483 C 200.248 119.977,200.415 119.896,199.189 121.206 M156.787 121.851 C 157.298 122.932,159.805 125.635,160.874 126.258 C 162.054 126.944,161.888 126.646,160.591 125.748 C 159.616 125.074,157.687 122.960,156.723 121.511 C 156.538 121.234,156.567 121.387,156.787 121.851 M203.181 123.260 C 204.340 124.427,205.349 125.381,205.422 125.381 C 205.495 125.381,204.605 124.427,203.446 123.260 C 202.286 122.094,201.278 121.140,201.205 121.140 C 201.132 121.140,202.021 122.094,203.181 123.260 M238.313 124.030 C 238.768 124.770,239.250 125.443,239.383 125.525 C 239.516 125.608,239.246 125.066,238.783 124.321 C 238.320 123.576,237.839 122.903,237.713 122.826 C 237.588 122.748,237.858 123.290,238.313 124.030 M195.610 125.315 C 193.733 127.345,193.145 128.032,193.285 128.032 C 193.364 128.032,194.171 127.197,195.078 126.176 C 196.804 124.233,197.196 123.599,195.610 125.315 M163.552 127.590 C 164.587 128.195,167.959 128.588,169.649 128.302 L 171.107 128.055 169.384 128.166 C 167.817 128.266,164.751 127.869,163.419 127.393 C 163.101 127.279,163.154 127.358,163.552 127.590 M192.296 129.158 L 191.518 130.020 192.379 129.241 C 192.853 128.813,193.241 128.425,193.241 128.380 C 193.241 128.175,193.022 128.355,192.296 129.158 M241.650 129.158 C 242.698 130.920,247.201 137.797,247.509 138.105 C 247.727 138.323,247.218 137.429,246.378 136.117 C 242.392 129.893,241.689 128.827,241.575 128.827 C 241.508 128.827,241.542 128.976,241.650 129.158 M189.505 132.339 C 188.575 133.396,188.024 134.095,188.281 133.892 C 188.838 133.451,191.490 130.417,191.317 130.417 C 191.251 130.417,190.436 131.282,189.505 132.339 M186.995 135.255 L 186.216 136.117 187.078 135.338 C 187.551 134.910,187.939 134.522,187.939 134.477 C 187.939 134.272,187.720 134.452,186.995 135.255 M183.706 139.038 C 182.389 140.571,181.312 141.903,181.312 141.998 C 181.312 142.092,181.353 142.120,181.403 142.059 C 182.092 141.221,185.272 137.527,185.777 136.978 C 186.146 136.577,186.369 136.249,186.274 136.249 C 186.178 136.249,185.022 137.504,183.706 139.038 M248.008 138.900 C 248.441 139.727,250.528 142.876,250.643 142.876 C 250.797 142.876,248.933 139.886,248.287 139.097 C 248.019 138.770,247.894 138.681,248.008 138.900 M179.416 144.003 C 176.292 147.621,175.096 149.070,175.371 148.904 C 175.710 148.699,181.124 142.346,180.959 142.346 C 180.897 142.346,180.203 143.091,179.416 144.003 M163.207 143.472 C 162.448 144.500,162.154 144.997,162.308 144.997 C 162.370 144.997,162.743 144.511,163.135 143.917 C 163.762 142.970,163.904 142.881,164.297 143.188 C 164.699 143.503,164.708 143.492,164.381 143.075 C 163.913 142.478,163.952 142.465,163.207 143.472 M252.271 145.547 C 252.535 145.996,252.920 146.503,253.127 146.674 C 253.334 146.845,253.169 146.478,252.760 145.858 C 251.902 144.557,251.564 144.342,252.271 145.547 M160.901 146.852 C 160.590 147.290,160.395 147.647,160.468 147.647 C 160.540 147.647,160.855 147.290,161.166 146.852 C 161.478 146.415,161.673 146.057,161.600 146.057 C 161.527 146.057,161.213 146.415,160.901 146.852 M169.649 148.310 C 170.882 149.549,171.950 150.563,172.023 150.563 C 172.096 150.563,171.147 149.549,169.914 148.310 C 168.681 147.071,167.613 146.057,167.540 146.057 C 167.467 146.057,168.416 147.071,169.649 148.310 M253.534 158.118 C 253.534 164.095,253.569 166.579,253.611 163.636 C 253.654 160.694,253.654 155.803,253.611 152.768 C 253.569 149.733,253.534 152.140,253.534 158.118 M159.602 148.856 C 159.295 149.375,159.165 149.726,159.312 149.635 C 159.599 149.457,160.460 147.913,160.272 147.913 C 160.209 147.913,159.908 148.337,159.602 148.856 M174.271 150.051 C 173.736 150.610,173.309 150.829,172.904 150.752 C 172.580 150.690,172.379 150.742,172.456 150.867 C 172.751 151.344,173.556 151.057,174.420 150.166 C 174.915 149.655,175.259 149.238,175.184 149.238 C 175.110 149.238,174.699 149.604,174.271 150.051 M155.402 155.127 C 151.415 161.135,151.564 160.901,151.722 160.901 C 151.790 160.901,153.367 158.605,155.226 155.799 C 157.086 152.992,158.720 150.547,158.859 150.364 C 158.997 150.182,159.037 150.033,158.947 150.033 C 158.857 150.033,157.262 152.325,155.402 155.127 M150.917 161.895 C 150.667 162.296,150.336 162.803,150.182 163.022 C 149.950 163.350,149.970 163.365,150.298 163.109 C 150.737 162.765,151.737 161.166,151.512 161.166 C 151.434 161.166,151.166 161.494,150.917 161.895 M173.447 169.317 C 188.147 169.355,212.124 169.355,226.728 169.317 C 241.332 169.280,229.304 169.249,200.000 169.249 C 170.696 169.249,158.747 169.280,173.447 169.317 M170.510 174.089 C 186.657 174.127,213.078 174.127,229.225 174.089 C 245.371 174.051,232.160 174.020,199.867 174.020 C 167.575 174.020,154.364 174.051,170.510 174.089 M128.044 180.069 C 128.020 181.013,129.355 183.320,130.605 184.493 L 131.875 185.686 130.796 184.493 C 129.462 183.020,128.997 182.274,128.469 180.766 C 128.243 180.119,128.051 179.805,128.044 180.069 M271.101 181.020 C 270.543 182.592,269.162 184.313,267.516 185.487 C 266.852 185.961,266.403 186.349,266.518 186.349 C 267.918 186.349,272.063 181.198,271.653 179.968 C 271.605 179.826,271.357 180.300,271.101 181.020 M265.531 186.512 C 265.442 186.602,264.974 186.778,264.493 186.905 C 263.641 187.129,263.645 187.132,264.656 187.016 C 265.586 186.910,266.690 186.349,265.969 186.349 C 265.818 186.349,265.621 186.422,265.531 186.512 M134.990 187.061 C 135.245 187.128,135.663 187.128,135.918 187.061 C 136.173 186.995,135.964 186.940,135.454 186.940 C 134.944 186.940,134.735 186.995,134.990 187.061 M168.278 187.343 C 185.822 187.380,214.450 187.380,231.897 187.343 C 249.344 187.305,234.990 187.274,200.000 187.274 C 165.010 187.274,150.735 187.305,168.278 187.343 " stroke="none" fill="#e8e8e8" fill-rule="evenodd"></path><path id="path3" d="M199.470 79.787 L 264.944 79.920 266.186 80.555 C 268.140 81.554,269.731 83.251,270.724 85.395 C 271.140 86.292,271.173 89.761,271.173 133.192 L 271.173 180.021 270.534 181.418 C 269.676 183.293,266.883 186.064,265.823 186.093 C 265.346 186.106,264.061 186.858,264.496 186.869 C 266.188 186.915,269.742 183.968,270.878 181.577 L 271.571 180.119 271.571 133.201 L 271.571 86.282 270.911 84.957 C 270.548 84.228,269.532 82.916,268.652 82.041 C 265.829 79.234,273.665 79.511,199.205 79.587 L 133.996 79.653 199.470 79.787 M130.916 81.345 C 129.487 82.603,127.373 86.752,128.523 86.041 C 128.690 85.938,128.827 85.675,128.827 85.457 C 128.827 84.232,130.330 82.090,132.140 80.732 C 132.432 80.514,132.538 80.331,132.377 80.327 C 132.215 80.322,131.558 80.780,130.916 81.345 M128.161 133.068 C 128.161 158.801,128.193 169.327,128.231 156.461 C 128.269 143.595,128.269 122.541,128.231 109.675 C 128.193 96.809,128.161 107.336,128.161 133.068 M140.932 92.423 C 140.687 92.669,140.709 173.830,140.954 173.982 C 141.064 174.049,141.123 155.746,141.085 133.307 L 141.017 92.510 199.932 92.577 L 258.847 92.644 258.914 133.185 C 258.967 165.432,258.913 173.773,258.649 173.960 C 258.402 174.135,258.419 174.167,258.714 174.087 C 259.231 173.946,259.462 93.226,258.948 92.606 C 258.629 92.221,141.316 92.040,140.932 92.423 M167.204 102.249 C 167.827 102.305,168.782 102.304,169.324 102.247 C 169.867 102.190,169.357 102.144,168.191 102.145 C 167.025 102.146,166.580 102.193,167.204 102.249 M164.215 102.685 C 163.151 103.090,162.283 103.627,162.675 103.637 C 162.849 103.641,163.056 103.539,163.136 103.410 C 163.216 103.281,163.696 103.097,164.202 103.002 C 164.709 102.907,165.195 102.714,165.281 102.574 C 165.472 102.266,165.258 102.288,164.215 102.685 M171.073 102.529 C 171.174 102.694,171.672 102.907,172.179 103.002 C 172.686 103.097,173.166 103.281,173.246 103.410 C 173.326 103.539,173.510 103.645,173.656 103.645 C 174.196 103.645,173.578 103.126,172.754 102.888 C 172.285 102.753,171.674 102.549,171.395 102.436 C 171.045 102.294,170.945 102.323,171.073 102.529 M160.504 104.766 C 154.084 110.182,153.461 118.639,159.063 124.333 C 165.084 130.454,175.431 129.037,179.743 121.501 C 180.859 119.550,181.714 116.619,181.047 117.031 C 180.901 117.121,180.782 117.498,180.782 117.868 C 180.782 118.513,180.440 119.440,179.494 121.361 C 178.211 123.967,174.455 126.688,171.169 127.394 C 157.103 130.411,149.816 112.857,161.565 104.256 C 162.002 103.936,162.240 103.668,162.094 103.661 C 161.948 103.654,161.233 104.151,160.504 104.766 M174.420 103.843 C 174.420 103.987,174.875 104.406,175.431 104.774 C 178.104 106.542,180.782 110.617,180.782 112.916 C 180.782 113.194,180.919 113.506,181.085 113.609 C 181.397 113.801,181.383 113.689,180.827 111.525 C 180.465 110.115,178.628 107.135,177.424 106.004 C 176.005 104.672,174.420 103.532,174.420 103.843 M225.190 109.013 C 224.352 110.070,223.388 111.292,223.048 111.730 C 222.709 112.167,221.201 114.060,219.698 115.936 C 216.049 120.490,215.959 120.610,216.214 120.605 C 216.335 120.603,216.673 120.263,216.965 119.851 C 217.256 119.439,217.990 118.517,218.596 117.802 C 220.169 115.943,223.955 111.169,225.095 109.604 C 226.978 107.021,226.830 107.007,228.776 109.946 C 229.715 111.364,230.531 112.644,230.590 112.790 C 230.648 112.936,230.768 113.115,230.857 113.188 C 230.946 113.260,231.355 113.838,231.765 114.471 C 232.176 115.104,232.562 115.571,232.624 115.510 C 232.808 115.325,227.327 107.119,227.009 107.105 C 226.848 107.097,226.029 107.956,225.190 109.013 M181.384 115.308 C 181.384 115.964,181.436 116.233,181.499 115.905 C 181.562 115.577,181.562 115.040,181.499 114.712 C 181.436 114.384,181.384 114.652,181.384 115.308 M233.174 116.634 C 233.392 117.071,233.690 117.429,233.835 117.429 C 233.980 117.429,233.844 117.071,233.532 116.634 C 233.221 116.196,232.924 115.838,232.872 115.838 C 232.820 115.838,232.956 116.196,233.174 116.634 M234.062 117.868 C 234.062 117.963,234.339 118.411,234.676 118.862 C 235.234 119.607,240.177 127.383,240.831 128.545 C 240.982 128.813,241.417 129.493,241.798 130.056 C 243.053 131.914,245.590 135.847,245.699 136.105 C 245.758 136.244,245.912 136.482,246.042 136.635 C 246.172 136.787,247.138 138.205,248.189 139.786 C 250.746 143.632,250.994 144.014,251.185 144.400 C 251.275 144.583,251.458 144.732,251.592 144.732 C 251.725 144.732,251.250 143.867,250.536 142.810 C 248.622 139.977,243.899 132.736,242.279 130.151 C 241.503 128.912,239.861 126.349,238.629 124.453 C 233.873 117.134,234.062 117.407,234.062 117.868 M196.626 124.387 C 192.180 129.505,190.130 131.878,185.553 137.206 C 183.411 139.701,181.295 142.146,180.853 142.640 C 180.410 143.134,178.600 145.239,176.832 147.316 C 172.939 151.889,173.293 151.828,169.873 148.509 C 164.651 143.440,164.033 142.875,163.842 142.993 C 163.636 143.120,163.376 143.507,154.391 157.058 C 151.200 161.869,148.527 165.865,148.450 165.938 C 148.085 166.283,146.587 168.634,146.587 168.861 C 146.587 169.027,165.641 169.119,200.000 169.119 L 253.413 169.119 253.413 158.116 L 253.413 147.113 252.618 146.015 C 252.180 145.411,251.822 145.006,251.822 145.115 C 251.822 145.455,252.721 146.852,252.940 146.852 C 253.054 146.852,253.148 151.803,253.148 157.853 L 253.148 168.854 200.012 168.854 L 146.877 168.854 147.328 168.060 C 147.577 167.624,147.869 167.266,147.979 167.265 C 148.088 167.264,148.178 167.094,148.178 166.888 C 148.178 166.681,148.267 166.472,148.376 166.424 C 148.653 166.301,150.298 163.854,150.298 163.566 C 150.298 163.437,150.391 163.291,150.504 163.243 C 150.617 163.194,151.314 162.260,152.054 161.166 C 152.793 160.073,154.073 158.182,154.897 156.963 C 155.721 155.745,156.395 154.696,156.395 154.633 C 156.395 154.569,156.521 154.373,156.675 154.197 C 156.829 154.021,158.075 152.147,159.444 150.033 C 162.712 144.986,163.808 143.406,164.040 143.406 C 164.146 143.406,166.136 145.254,168.464 147.513 C 170.792 149.772,172.858 151.621,173.055 151.622 C 173.562 151.624,174.299 150.841,178.922 145.394 C 180.159 143.936,181.235 142.684,181.312 142.611 C 181.389 142.538,182.166 141.643,183.039 140.623 C 183.912 139.602,184.688 138.708,184.764 138.635 C 184.840 138.562,185.496 137.787,186.222 136.914 C 186.948 136.040,187.661 135.192,187.806 135.029 C 189.180 133.495,192.088 130.138,193.266 128.726 C 193.616 128.305,194.023 127.828,194.170 127.665 C 194.316 127.502,195.151 126.535,196.025 125.516 C 196.899 124.497,197.734 123.533,197.879 123.373 C 198.025 123.213,198.548 122.586,199.040 121.979 C 200.229 120.514,200.057 120.436,203.488 123.983 C 205.141 125.693,206.494 126.997,206.494 126.881 C 206.494 126.765,205.331 125.469,203.910 124.002 C 202.488 122.535,201.168 121.171,200.975 120.972 C 200.316 120.290,199.903 120.615,196.626 124.387 M214.447 122.598 C 214.104 122.962,213.950 123.260,214.105 123.260 C 214.259 123.260,214.581 122.962,214.820 122.598 C 215.059 122.233,215.213 121.935,215.162 121.935 C 215.111 121.935,214.789 122.233,214.447 122.598 M213.465 123.850 C 212.877 124.611,212.818 124.942,213.374 124.369 C 213.702 124.032,213.915 123.701,213.848 123.634 C 213.782 123.567,213.609 123.665,213.465 123.850 M212.186 125.474 C 211.388 126.363,210.438 127.765,210.638 127.756 C 210.893 127.745,212.692 125.390,212.549 125.255 C 212.499 125.208,212.336 125.307,212.186 125.474 M206.768 127.141 C 206.780 127.464,207.526 128.414,207.662 128.278 C 207.724 128.215,207.546 127.883,207.267 127.539 C 206.988 127.194,206.763 127.015,206.768 127.141 M209.766 128.539 C 209.333 129.045,208.693 129.006,208.263 128.449 C 208.122 128.265,208.080 128.297,208.145 128.537 C 208.346 129.287,209.314 129.361,209.958 128.675 C 210.291 128.321,210.481 128.032,210.382 128.032 C 210.282 128.032,210.005 128.260,209.766 128.539 M128.297 180.235 C 128.297 182.449,133.246 187.211,135.139 186.818 C 135.385 186.767,135.020 186.555,134.327 186.347 C 133.635 186.138,133.068 185.902,133.068 185.821 C 133.068 185.740,132.680 185.465,132.206 185.210 C 131.273 184.707,129.388 182.295,128.960 181.057 C 128.657 180.182,128.297 179.735,128.297 180.235 M167.971 187.078 C 185.491 187.115,214.238 187.115,231.854 187.078 C 249.470 187.040,235.136 187.009,200.000 187.009 C 164.864 187.009,150.451 187.040,167.971 187.078 " stroke="none" fill="#f2f2f2" fill-rule="evenodd"></path><path id="path4" d="M133.598 80.038 C 133.380 80.158,132.885 80.403,132.500 80.582 C 130.923 81.315,128.827 84.097,128.827 85.457 C 128.827 85.675,128.708 85.927,128.562 86.017 C 128.248 86.211,128.182 179.786,128.496 180.094 C 128.605 180.202,128.814 180.635,128.960 181.057 C 129.368 182.239,131.221 184.650,132.125 185.175 C 132.571 185.434,132.995 185.716,133.068 185.801 C 133.141 185.886,133.797 186.164,134.526 186.419 C 136.411 187.078,263.792 187.008,265.343 186.347 C 267.588 185.390,269.584 183.495,270.534 181.418 L 271.173 180.021 271.173 133.192 C 271.173 89.761,271.140 86.292,270.724 85.395 C 269.690 83.162,268.103 81.513,265.995 80.481 L 264.579 79.788 199.288 79.804 C 163.377 79.812,133.817 79.918,133.598 80.038 M258.948 92.606 C 259.167 92.870,259.228 103.761,259.179 133.494 L 259.112 174.023 200.000 174.023 L 140.888 174.023 140.820 133.466 C 140.782 111.160,140.809 92.760,140.878 92.578 C 141.073 92.066,258.523 92.094,258.948 92.606 M165.288 102.564 C 165.204 102.699,164.772 102.889,164.326 102.987 C 161.957 103.507,158.519 106.519,157.158 109.267 C 151.525 120.641,162.963 131.958,174.350 126.276 C 176.015 125.445,178.787 122.797,179.494 121.361 C 180.440 119.440,180.782 118.513,180.782 117.868 C 180.782 117.498,180.901 117.121,181.047 117.031 C 181.193 116.941,181.312 116.166,181.312 115.308 C 181.312 114.451,181.193 113.675,181.047 113.585 C 180.901 113.495,180.782 113.194,180.782 112.916 C 180.782 110.617,178.104 106.542,175.431 104.774 C 174.875 104.406,174.420 104.001,174.420 103.875 C 174.420 103.748,174.189 103.645,173.906 103.645 C 173.623 103.645,173.317 103.526,173.227 103.380 C 173.137 103.234,172.862 103.114,172.615 103.113 C 172.369 103.112,171.825 102.933,171.408 102.715 C 170.551 102.269,165.547 102.145,165.288 102.564 M226.331 108.088 C 225.963 108.487,225.316 109.289,224.892 109.870 C 224.209 110.806,220.416 115.627,219.257 117.031 C 219.016 117.323,218.283 118.217,217.627 119.019 C 216.971 119.821,216.345 120.517,216.236 120.565 C 216.127 120.614,216.037 120.753,216.037 120.874 C 216.037 121.086,215.367 121.955,214.380 123.023 C 214.125 123.299,213.917 123.601,213.917 123.694 C 213.917 123.787,213.618 124.139,213.254 124.476 C 212.889 124.814,212.591 125.169,212.591 125.264 C 212.591 125.464,211.216 127.249,210.124 128.467 C 209.355 129.325,208.456 129.413,208.167 128.658 C 208.090 128.459,207.862 128.297,207.659 128.297 C 207.456 128.297,207.290 128.203,207.290 128.088 C 207.290 127.775,200.509 120.875,200.202 120.875 C 200.056 120.875,199.533 121.372,199.040 121.979 C 198.548 122.586,198.025 123.213,197.879 123.373 C 197.545 123.740,194.868 126.854,194.015 127.868 C 193.662 128.289,193.254 128.767,193.108 128.931 C 192.962 129.096,192.127 130.063,191.252 131.082 C 189.862 132.701,188.711 134.020,187.806 135.029 C 187.661 135.192,186.948 136.040,186.222 136.914 C 185.496 137.787,184.840 138.562,184.764 138.635 C 184.688 138.708,183.912 139.602,183.039 140.623 C 182.166 141.643,181.389 142.538,181.312 142.611 C 181.235 142.684,180.159 143.936,178.922 145.394 C 174.299 150.841,173.562 151.624,173.055 151.622 C 172.858 151.621,170.792 149.772,168.464 147.513 C 166.136 145.254,164.146 143.406,164.040 143.406 C 163.808 143.406,162.712 144.986,159.444 150.033 C 158.075 152.147,156.829 154.021,156.675 154.197 C 156.521 154.373,156.395 154.569,156.395 154.633 C 156.395 154.696,155.721 155.745,154.897 156.963 C 154.073 158.182,152.793 160.073,152.054 161.166 C 151.314 162.260,150.617 163.194,150.504 163.243 C 150.391 163.291,150.298 163.437,150.298 163.566 C 150.298 163.854,148.653 166.301,148.376 166.424 C 148.267 166.472,148.178 166.681,148.178 166.888 C 148.178 167.094,148.088 167.264,147.979 167.265 C 147.869 167.266,147.577 167.624,147.328 168.060 L 146.877 168.854 200.012 168.854 L 253.148 168.854 253.148 157.853 C 253.148 151.803,253.047 146.852,252.924 146.852 C 252.802 146.852,252.474 146.411,252.195 145.872 C 251.917 145.333,251.466 144.624,251.192 144.298 C 250.918 143.971,250.561 143.466,250.397 143.176 C 250.018 142.504,246.356 137.003,246.042 136.635 C 245.912 136.482,245.758 136.244,245.699 136.105 C 245.590 135.847,243.053 131.914,241.798 130.056 C 241.417 129.493,240.982 128.813,240.831 128.545 C 240.177 127.383,235.234 119.607,234.676 118.862 C 234.339 118.411,234.062 117.916,234.062 117.763 C 234.062 117.611,233.883 117.417,233.665 117.333 C 233.446 117.249,233.267 117.051,233.267 116.894 C 233.267 116.571,231.123 113.368,230.815 113.232 C 230.706 113.183,230.616 113.050,230.616 112.935 C 230.616 112.777,227.379 107.763,227.059 107.425 C 227.026 107.390,226.698 107.688,226.331 108.088 " stroke="none" fill="#fefefe" fill-rule="evenodd"></path></g></svg>